{"title":"Mountain.Men.S01E01.Winter.Is.Coming.HDTV.XviD-AFG","uid":11681301,"size":464630894,"categoryP":"video","categoryS":"tv_shows","magnet":"?xt=urn:btih:1b309d4808e4f05b92c45553411a783f6fe9b42c&amp;dn=Mountain.Men.S01E01.Winter.Is.Coming.HDTV.XviD-AFG&amp;tr=udp%3A%2F%2Ftracker.openbittorrent.com%3A80&amp;tr=udp%3A%2F%2Fopen.demonii.com%3A1337&amp;tr=udp%3A%2F%2Ftracker.coppersurfer.tk%3A6969&amp;tr=udp%3A%2F%2Fexodus.desync.com%3A6969","seeders":4,"leechers":0,"uploader":"toots2boots","files":4,"time":1423113012,"description":"From the rugged Blue Ridge Mountains of North Carolina to the seven-month-long winters on the Yaak River in Montana to the frigid northern range of Alaska, the country is full of some very unforgiving terrain. Watch as these men face off against mudslides, falling trees, ravaging weather and even hungry animals, to make sure they obtain the food and supplies they will need to make it through the brutal winter months ahead.\n\nGeneral\nComplete name                            : G:Torrent uploadMountain Men-Season 1Mountain.Men.S01E01.Winter.Is.Coming.HDTV.XviD-AFGMountain.Men.S01E01.Winter.Is.Coming.HDTV.XviD-AFG.avi\nFormat                                   : AVI\nFormat/Info                              : Audio Video Interleave\nFile size                                : 443 MiB\nDuration                                 : 43mn 59s\nOverall bit rate mode                    : Variable\nOverall bit rate                         : 1 408 Kbps\n\nVideo\nID                                       : 0\nFormat                                   : MPEG-4 Visual\nFormat profile                           : Advanced Simple@L5\nFormat settings, BVOP                    : 2\nFormat settings, QPel                    : No\nFormat settings, GMC                     : No warppoints\nFormat settings, Matrix                  : Default (H.263)\nCodec ID                                 : XVID\nCodec ID/Hint                            : XviD\nDuration                                 : 43mn 59s\nBit rate                                 : 1 266 Kbps\nWidth                                    : 640 pixels\nHeight                                   : 360 pixels\nDisplay aspect ratio                     : 16:9\nFrame rate                               : 29.970 fps\nColor space                              : YUV\nChroma subsampling                       : 4:2:0\nBit depth                                : 8 bits\nScan type                                : Progressive\nCompression mode                         : Lossy\nBits/(Pixel*Frame)                       : 0.183\nStream size                              : 398 MiB (90%)\nWriting library                          : XviD 64\n\nAudio\nID                                       : 1\nFormat                                   : MPEG Audio\nFormat version                           : Version 1\nFormat profile                           : Layer 3\nMode                                     : Joint stereo\nMode extension                           : MS Stereo\nCodec ID                                 : 55\nCodec ID/Hint                            : MP3\nDuration                                 : 43mn 59s\nBit rate mode                            : Variable\nBit rate                                 : 128 Kbps\nChannel(s)                               : 2 channels\nSampling rate                            : 48.0 KHz\nCompression mode                         : Lossy\nStream size                              : 40.3 MiB (9%)\nAlignment                                : Aligned on interleaves\nInterleave, duration                     : 24 ms (0.72 video frame)\nInterleave, preload duration             : 178 ms\nTitle                                    : Mountain.Men.S01E01.Winter.Is.Coming.HDTV.XviD-AFG_360p.audio","torrent":{"xt":"urn:btih:1b309d4808e4f05b92c45553411a783f6fe9b42c","amp;dn":"Mountain.Men.S01E01.Winter.Is.Coming.HDTV.XviD-AFG","amp;tr":["udp%3A%2F%2Ftracker.openbittorrent.com%3A80","udp%3A%2F%2Fopen.demonii.com%3A1337","udp%3A%2F%2Ftracker.coppersurfer.tk%3A6969","udp%3A%2F%2Fexodus.desync.com%3A6969"],"infoHash":"1b309d4808e4f05b92c45553411a783f6fe9b42c","infoHashBuffer":{"type":"Buffer","data":[27,48,157,72,8,228,240,91,146,196,85,83,65,26,120,63,111,233,180,44]},"announce":[],"urlList":[]}}